<?xml version="1.0" encoding="UTF-8" standalone="no"?>
<!-- Created with Inkscape (http://www.inkscape.org/) -->

<svg
   width="157.26826mm"
   height="40.074009mm"
   viewBox="0 0 157.26826 40.074009"
   version="1.1"
   id="svg1"
   inkscape:version="1.4 (86a8ad7, 2024-10-11)"
   sodipodi:docname="LOGO.svg"
   xml:space="preserve"
   xmlns:inkscape="http://www.inkscape.org/namespaces/inkscape"
   xmlns:sodipodi="http://sodipodi.sourceforge.net/DTD/sodipodi-0.dtd"
   xmlns="http://www.w3.org/2000/svg"
   xmlns:svg="http://www.w3.org/2000/svg"><sodipodi:namedview
     id="namedview1"
     pagecolor="#505050"
     bordercolor="#eeeeee"
     borderopacity="1"
     inkscape:showpageshadow="0"
     inkscape:pageopacity="0"
     inkscape:pagecheckerboard="0"
     inkscape:deskcolor="#d1d1d1"
     inkscape:document-units="mm"
     inkscape:zoom="0.45126639"
     inkscape:cx="-585.0203"
     inkscape:cy="499.70484"
     inkscape:window-width="2560"
     inkscape:window-height="1369"
     inkscape:window-x="1912"
     inkscape:window-y="-8"
     inkscape:window-maximized="1"
     inkscape:current-layer="layer1"
     inkscape:export-bgcolor="#ffffff00"><inkscape:page
       x="0"
       y="0"
       width="157.26826"
       height="40.074009"
       id="page2"
       margin="0"
       bleed="0" /></sodipodi:namedview><defs
     id="defs1" /><g
     inkscape:label="Layer 1"
     inkscape:groupmode="layer"
     id="layer1"
     transform="translate(186.04675,-52.135633)"><g
       id="g45"
       style="fill:#ffffff;fill-opacity:1"
       transform="translate(4.9750304,-73.448168)"
       inkscape:export-filename="logo_v2-white.png"
       inkscape:export-xdpi="96"
       inkscape:export-ydpi="96"><path
         id="path42"
         d="m -191.0218,155.0337 c 0,2.51584 0.94997,5.03223 2.85101,6.93328 l 0.32435,0.32373 c 3.80208,3.80209 10.06325,3.80209 13.86534,0 l 0.32436,-0.32373 c 3.80207,-3.80209 3.80207,-10.06371 0,-13.8658 l -2.73822,-2.73805 -4.51881,-4.51834 -2.73774,-2.73837 c -0.68001,-0.68 -1.02019,-1.54714 -1.02019,-2.41418 0,-0.86702 0.34018,-1.734 1.02019,-2.414 l 0.32372,-0.32373 c 1.36001,-1.36001 3.46818,-1.36001 4.82818,0 l 0.32421,0.32373 c 1.36001,1.36 1.36001,3.46817 0,4.82818 l -0.47897,0.47912 4.51864,4.51834 h 1.7e-4 l 0.47882,-0.47897 c 3.80207,-3.80208 3.80207,-10.06324 0,-13.86533 l -0.32436,-0.32372 v -4.9e-4 c -3.80209,-3.80209 -10.06326,-3.80209 -13.86534,0 l -0.32435,0.32435 c -1.90104,1.90104 -2.85101,4.41684 -2.85101,6.93266 0,2.51585 0.94997,5.03164 2.85101,6.93268 l 2.73821,2.7382 4.51881,4.51881 2.73837,2.73775 c 1.36001,1.36 1.36001,3.46817 0,4.82818 l -0.32421,0.32434 c -1.36,1.36002 -3.46817,1.36002 -4.82818,0 l -0.32372,-0.32434 c -0.68001,-0.68001 -1.02019,-1.54715 -1.02019,-2.41417 0,-0.86703 0.34018,-1.73401 1.02019,-2.41401 l 0.47834,-0.4785 -4.51881,-4.51881 -0.47881,0.47881 c -1.90104,1.90104 -2.85101,4.41668 -2.85101,6.93251 z"
         sodipodi:nodetypes="sccccccccsssccccccccccsssscccccccscccss"
         style="fill:#ffffff;fill-opacity:1;stroke-width:0.301906" /><text
         xml:space="preserve"
         style="font-style:normal;font-variant:normal;font-weight:900;font-stretch:normal;font-size:26.125px;font-family:'Fira Sans';-inkscape-font-specification:'Fira Sans, Heavy';font-variant-ligatures:normal;font-variant-caps:normal;font-variant-numeric:normal;font-variant-east-asian:normal;text-align:start;letter-spacing:0px;writing-mode:lr-tb;direction:ltr;text-anchor:start;fill:#ffffff;fill-opacity:1;stroke:none;stroke-width:5.29167;stroke-dasharray:none;stroke-opacity:1"
         x="-168.15933"
         y="154.74118"
         id="text43"><tspan
           sodipodi:role="line"
           id="tspan43"
           style="font-style:normal;font-variant:normal;font-weight:900;font-stretch:normal;font-size:26.125px;font-family:'Fira Sans';-inkscape-font-specification:'Fira Sans, Heavy';font-variant-ligatures:normal;font-variant-caps:normal;font-variant-numeric:normal;font-variant-east-asian:normal;letter-spacing:0px;fill:#ffffff;fill-opacity:1;stroke:none;stroke-width:5.29167"
           x="-168.15933"
           y="154.74118">SCHNEIDER</tspan></text><text
         xml:space="preserve"
         style="font-style:normal;font-variant:normal;font-weight:500;font-stretch:normal;font-size:13.6445px;font-family:'Fira Sans';-inkscape-font-specification:'Fira Sans, Medium';font-variant-ligatures:normal;font-variant-caps:normal;font-variant-numeric:normal;font-variant-east-asian:normal;text-align:start;letter-spacing:0px;writing-mode:lr-tb;direction:ltr;text-anchor:start;fill:#ffffff;fill-opacity:1;stroke:none;stroke-width:2.76371;stroke-dasharray:none;stroke-opacity:1"
         x="-78.985077"
         y="165.45314"
         id="text44"><tspan
           sodipodi:role="line"
           id="tspan44"
           style="font-style:normal;font-variant:normal;font-weight:500;font-stretch:normal;font-size:13.6445px;font-family:'Fira Sans';-inkscape-font-specification:'Fira Sans, Medium';font-variant-ligatures:normal;font-variant-caps:normal;font-variant-numeric:normal;font-variant-east-asian:normal;letter-spacing:0px;fill:#ffffff;fill-opacity:1;stroke:none;stroke-width:2.76371"
           x="-78.985077"
           y="165.45314">STUDIO</tspan></text><text
         xml:space="preserve"
         style="font-style:normal;font-variant:normal;font-weight:500;font-stretch:normal;font-size:14.2754px;font-family:'Fira Sans';-inkscape-font-specification:'Fira Sans, Medium';font-variant-ligatures:normal;font-variant-caps:normal;font-variant-numeric:normal;font-variant-east-asian:normal;text-align:start;letter-spacing:0px;writing-mode:lr-tb;direction:ltr;text-anchor:start;fill:#ffffff;fill-opacity:1;stroke:none;stroke-width:2.89153;stroke-dasharray:none;stroke-opacity:1"
         x="-168.30209"
         y="135.50652"
         id="text45"><tspan
           sodipodi:role="line"
           id="tspan45"
           style="font-style:normal;font-variant:normal;font-weight:500;font-stretch:normal;font-size:14.2754px;font-family:'Fira Sans';-inkscape-font-specification:'Fira Sans, Medium';font-variant-ligatures:normal;font-variant-caps:normal;font-variant-numeric:normal;font-variant-east-asian:normal;letter-spacing:0px;fill:#ffffff;fill-opacity:1;stroke:none;stroke-width:2.89153"
           x="-168.30209"
           y="135.50652">THE</tspan></text></g></g></svg>
